<?xml version="1.0" encoding="UTF-8"?>
<svg width="35px" height="37px" viewBox="0 0 35 37" version="1.1" xmlns="http://www.w3.org/2000/svg" xmlns:xlink="http://www.w3.org/1999/xlink">
    <!-- Generator: Sketch 49.1 (51147) - http://www.bohemiancoding.com/sketch -->
    <title>Combined Shape</title>
    <desc>Created with Sketch.</desc>
    <defs></defs>
    <g id="Page-1" stroke="none" stroke-width="1" fill="none" fill-rule="evenodd">
        <g id="专栏-H5-频道页" transform="translate(-40.000000, -62.000000)" fill="#28B76B">
            <g id="Navbar">
                <path d="M71.0426321,78.1242577 L57.1843142,65.8596045 L43.3259963,78.1242577 L43.3259963,95.6740037 L49.9779889,95.6740037 L49.9779889,87.1960148 C49.9779889,86.3675877 50.6495618,85.6960148 51.4779889,85.6960148 L51.5136497,85.6960148 L62.8906395,85.6960148 C63.3048531,85.6960148 63.6798531,85.863908 63.9512997,86.1353546 C64.2227463,86.4068012 64.3906395,86.7818012 64.3906395,87.1960148 L64.3906395,95.6740037 L71.0426321,95.6740037 L71.0426321,78.1242577 Z M74.3055956,76.977024 C74.3465981,77.1137188 74.3686284,77.2586173 74.3686284,77.4086612 L74.3686284,97.1740037 L74.3686284,97.5 C74.3686284,98.3284271 73.6970556,99 72.8686284,99 L63.1048201,99 C63.0688129,99 63.033102,98.9987313 62.9977298,98.9962361 C62.9623575,98.9987313 62.9266467,99 62.8906395,99 L62.5646432,99 C61.7362161,99 61.0646432,98.3284271 61.0646432,97.5 L61.0646432,89.0220111 L53.3039852,89.0220111 L53.3039852,97.5 C53.3039852,97.9142136 53.136092,98.2892136 52.8646454,98.5606602 C52.5931988,98.8321068 52.2181988,99 51.8039852,99 L41.8259963,99 L41.5,99 C40.6715729,99 40,98.3284271 40,97.5 L40,77.4086612 C40,77.2589333 40.0219377,77.1143292 40.0627741,76.9778878 C40.1198947,76.7006471 40.2560162,76.4364397 40.4711387,76.2213172 C40.4926826,76.1997732 40.514878,76.1788907 40.5376938,76.1586986 L56.1274742,62.3616959 C56.4289451,62.0948932 56.8094031,61.9706155 57.1843142,61.9862866 C57.5592253,61.9706155 57.9396833,62.0948932 58.2411543,62.3616959 L73.8309347,76.1586986 C74.0830644,76.3818342 74.2422765,76.6708677 74.3055956,76.977024 Z" id="Combined-Shape"></path>
            </g>
        </g>
    </g>
</svg>