<svg width="69" height="69" viewBox="0 0 69 69" xmlns="http://www.w3.org/2000/svg" xmlns:xlink="http://www.w3.org/1999/xlink"><title>Combined Shape</title><defs><path d="M316.5 51c-10.702 0-19.414-8.71-19.5-19.369-.085-10.748 8.624-19.545 19.5-19.631 10.702 0 19.414 8.71 19.5 19.369.042 5.2-1.993 10.098-5.634 13.824-3.638 3.726-8.535 5.764-13.735 5.807h-.131zm-7.317-25.173c-.985 0-1.783.798-1.783 1.783v7.78a1.783 1.783 0 1 0 3.566 0v-7.78c0-.985-.798-1.783-1.783-1.783zm14.263 0c-.985 0-1.783.798-1.783 1.783v7.78a1.783 1.783 0 1 0 3.566 0v-7.78c0-.985-.799-1.783-1.783-1.783zm-7.132-4.727c-.984 0-1.783.798-1.783 1.783v17.234a1.783 1.783 0 1 0 3.566 0V22.883c0-.985-.798-1.783-1.783-1.783z" id="b"/><filter x="-57.9%" y="-55.4%" width="215.9%" height="215.9%" filterUnits="objectBoundingBox" id="a"><feMorphology radius="2.6" operator="dilate" in="SourceAlpha" result="shadowSpreadOuter1"/><feOffset dy="1" in="shadowSpreadOuter1" result="shadowOffsetOuter1"/><feGaussianBlur stdDeviation="6.5" in="shadowOffsetOuter1" result="shadowBlurOuter1"/><feComposite in="shadowBlurOuter1" in2="SourceAlpha" operator="out" result="shadowBlurOuter1"/><feColorMatrix values="0 0 0 0 0 0 0 0 0 0 0 0 0 0 0 0 0 0 0.1 0" in="shadowBlurOuter1"/></filter></defs><g transform="translate(-282 2)" fill="none" fill-rule="evenodd"><use fill="#000" filter="url(#a)" xlink:href="#b"/><path stroke-opacity=".05" stroke="#000" stroke-width="2.6" d="M316.5 52.3c-11.397 0-20.708-9.267-20.8-20.659-.09-11.478 9.209-20.85 20.8-20.941 11.397 0 20.708 9.267 20.8 20.658.045 5.511-2.1 10.748-6.004 14.743-3.862 3.955-9.081 6.153-14.665 6.199h-.131zm-7.317-25.173a.483.483 0 0 0-.483.483v7.78a.483.483 0 0 0 .966 0v-7.78a.483.483 0 0 0-.483-.483zm14.263 0a.483.483 0 0 0-.483.483v7.78a.483.483 0 0 0 .966 0v-7.78a.483.483 0 0 0-.483-.483zm-7.132-4.727a.483.483 0 0 0-.483.483v17.234a.483.483 0 1 0 .966 0V22.883a.483.483 0 0 0-.483-.483z" fill="#FFF"/></g></svg>