<?xml version="1.0" encoding="UTF-8"?>
<svg width="104px" height="20px" viewBox="0 0 104 20" version="1.1" xmlns="http://www.w3.org/2000/svg" xmlns:xlink="http://www.w3.org/1999/xlink">
    <!-- Generator: Sketch 47.1 (45422) - http://www.bohemiancoding.com/sketch -->
    <title>logo</title>
    <desc>Created with Sketch.</desc>
    <defs></defs>
    <g id="Page-1" stroke="none" stroke-width="1" fill="none" fill-rule="evenodd">
        <g id="编辑器---默认" transform="translate(-500.000000, -20.000000)">
            <g id="Group-10">
                <g id="logo" transform="translate(500.000000, 16.000000)">
                    <path d="M53.3181627,14.9326473 C53.2013081,18.7831513 53.0474019,20.2067833 52.7937417,20.5730229 C52.6384105,20.8224079 52.4845044,20.8808352 52.2693208,20.8808352 C52.0370365,20.8808352 51.7448998,20.8808352 51.3957608,20.8423587 C52.0954638,19.0140106 52.4845044,16.9733289 52.6768871,14.9326473 L53.3181627,14.9326473 Z M31.4665657,15.311855 C31.5642569,14.7087721 31.6152571,14.0434368 31.6152571,13.3092224 L34.887188,13.4773791 C34.8639298,14.1281707 34.8089597,14.7388571 34.7238007,15.311855 L42.6265301,15.311855 C42.4198968,22.8090799 39.8547942,23.3078498 36.12542,23.3078498 C36.0669927,22.4570908 35.6722519,21.1674142 35.1079293,20.336606 C36.2764761,20.4335098 37.3481189,20.4335098 37.8725399,20.4335098 C38.4710638,20.4335098 39.2819213,20.2097759 39.5184807,17.8940583 L34.0454178,17.8940583 C32.7577238,21.0931675 30.0926601,22.615968 26.5862309,23.3131225 C26.3325708,22.600594 25.56304,21.5346514 25.0001425,20.976029 C27.4252475,20.6106393 29.4311089,19.809442 30.5765637,17.8940583 L25.6868775,17.8940583 L25.6868775,15.311855 L31.4665657,15.311855 Z M42.6261025,8.89197318 L42.6261025,10.9518931 L39.8800177,10.9518931 L39.8800177,9.12069483 L28.4339599,9.12069483 L28.4339599,10.9518931 L25.687875,10.9518931 L25.687875,9.12069483 L25.68645,6.83205328 L32.5539422,6.83205328 L32.5539422,5.00028501 L35.7588954,5.22829413 L35.7588954,6.83205328 L42.6261025,6.83205328 L42.6261025,8.89197318 Z M63,12.0155556 L60.8153876,15.4912697 L60.8153876,15.9529881 L63,15.9529881 L63,18.4354374 L60.8153876,18.4354374 L60.8153876,20.5915487 C60.8153876,22.7676107 60.2467899,23.3062823 56.9264071,23.3062823 C56.849454,22.5552772 56.5373665,21.4964599 56.2081783,20.7654056 C56.8679797,20.8038822 57.6303852,20.8038822 57.8640946,20.8038822 C58.1163297,20.7839314 58.1932827,20.7454548 58.1932827,20.5345464 L58.1932827,18.4354374 L56.2053282,18.4354374 L56.2053282,15.9529881 L58.1932827,15.9529881 L58.1932827,14.1574163 L58.9813393,14.1559912 L59.3789302,13.5460668 L56.6770221,13.5460668 L56.6770221,12.6611064 C56.1540262,12.2948668 55.4927997,11.9101014 55.0268061,11.6792422 C55.2206138,11.3714299 55.3773701,11.025141 55.551227,10.6403756 L52.949073,10.6403756 C52.9305472,11.2175237 52.9105964,11.8146226 52.8721199,12.4102964 L55.9402676,12.4117215 L55.900366,13.2767311 C55.900366,13.2767311 55.7664107,21.2299742 55.0268061,22.2859414 C54.4867095,23.0583223 53.9594384,23.3647096 51.8432287,23.3062823 C51.8047522,22.6322303 51.6095194,21.7273191 51.298857,21.0732179 C50.9881945,21.8427487 50.600579,22.5937538 50.1345854,23.2678057 C49.6871175,22.6322303 48.8919357,21.8812252 48.1722819,21.4579833 C50.0946838,18.7047732 50.2899166,14.5094054 50.3668697,10.6403756 L49.12422,10.6403756 L49.12422,8.0025951 L51.2219039,8.0025951 L51.2219039,5 L53.9409126,5.22800912 L53.9409126,8.0025951 L55.9602184,8.0025951 L55.9602184,9.44617785 C56.3478339,8.11802472 56.6200198,6.50058502 56.775351,5 L59.4687087,5.4574433 C59.4687087,5.4574433 59.3518541,6.44215769 59.2022231,7.32854314 L63,7.32854314 L63,9.96632365 L58.5609474,9.96632365 C58.4455178,10.3696148 58.3087123,10.7558052 58.1733319,11.1405706 L60.9308172,11.1405706 L61.3184327,11.0051902 L63,12.0155556 Z M49.3080523,12.1332653 L47.6578363,14.3848554 C47.0550372,13.8077073 45.7354344,13.0182257 44.6865925,12.5565073 L46.2399046,10.4972999 C47.2687958,10.8820653 48.6482509,11.5561172 49.3080523,12.1332653 Z M49.7659231,6.94164017 L48.0957563,9.17470449 C47.4943823,8.5776056 46.1348779,7.74964749 45.0860359,7.26797822 L46.6592989,5.22872165 C47.7081408,5.63343784 49.0861709,6.34454128 49.7659231,6.94164017 Z M49.3080523,16.7800912 C48.7066783,18.8977259 48.0269261,20.9583583 47.4440778,22.4788942 C47.3428987,22.7567803 47.2231939,23.0417917 47.2231939,23.0417917 L44.7065433,21.7464149 C45.3862955,20.1874025 46.3182827,17.7434297 47.0165607,15.3949358 L49.3080523,16.7800912 Z M33.3137826,9.79389176 C32.5314263,12.2563903 30.4935947,14.3383985 26.4378825,14.9639986 C26.2041732,14.2899466 25.524421,13.249655 25,12.7095584 C28.5868685,12.3703948 29.8679947,11.1533961 30.3069123,9.60863435 C30.3069123,9.60863435 32.6682317,9.76111544 33.3137826,9.79389176 Z M43.3128375,12.0414917 L42.9836493,14.5980439 L38.400666,14.5980439 C35.875465,14.5980439 35.2926167,13.9040412 35.2926167,11.8035071 L35.2926167,9.64169567 L38.0871535,9.78562643 L38.0900036,11.4443928 C38.0900036,11.9830643 38.2068583,12.0414917 38.8281831,12.0414917 L43.3128375,12.0414917 Z" id="Combined-Shape" fill="#000000" opacity="0.5"></path>
                    <text id="专栏" opacity="0.5" font-family="PingFangSC-Light, PingFang SC" font-size="19.7000008" font-weight="300" fill="#000000">
                        <tspan x="65" y="21">专栏</tspan>
                    </text>
                    <g id="Q" transform="translate(0.000000, 4.000000)">
                        <path d="M10.509996,15.8256961 C7.21899083,15.8256961 4.55147986,13.1581851 4.55147986,9.8671799 C4.55147986,6.57771041 7.21899083,3.90866374 10.509996,3.90866374 C13.8010012,3.90866374 16.4669765,6.57771041 16.4669765,9.8671799 C16.4669765,13.1581851 13.8010012,15.8256961 10.509996,15.8256961 M10.509996,0.000307140008 C5.05979657,0.000307140008 0.641587555,4.41851615 0.641587555,9.8671799 C0.641587555,15.3173793 5.05979657,19.7355884 10.509996,19.7355884 C15.9586598,19.7355884 20.3768688,15.3173793 20.3768688,9.8671799 C20.3768688,4.41851615 15.9586598,0.000307140008 10.509996,0.000307140008" id="Fill-21" fill="#017550"></path>
                        <path d="M19.7676566,19.386063 L10.7254547,14.2046111 C10.6179557,14.1416474 10.5964559,13.9926845 10.6855265,13.9051496 L14.5462764,10.0443997 C14.635347,9.95532908 14.7843099,9.97529318 14.8457379,10.0843279 L20.0271899,19.1265297 C20.123939,19.293921 19.9365836,19.4828121 19.7676566,19.386063" id="Fill-22" fill="#9F1E45"></path>
                    </g>
                </g>
            </g>
        </g>
    </g>
</svg>